<svg id="Capa_6" data-name="Capa 6" xmlns="http://www.w3.org/2000/svg" viewBox="0 0 232.15 230.87"><defs><style>.cls-1{fill:#ffe907;}</style></defs><title>logotype-withoutletters</title><g id="Capa_1" data-name="Capa 1"><path class="cls-1" d="M560.23,266.44l-.29-.25-165-145.55-.19-.18-.42-.37-.05,0a7.36,7.36,0,0,0-11.73,4.2,1.42,1.42,0,0,0-.05.22l-19.63,95.44a21.3,21.3,0,1,0,10.43,2.14L391.59,133l.18-.88.68.6L547.64,269.54l1.69,1.49-2.15.71L350,336.79l-.82.27.17-.84,3.66-17.7a21.3,21.3,0,1,0-10.42-2.15l-4.79,23.16-.28,1.38-.11.54a4.71,4.71,0,0,0,0,.53,7.38,7.38,0,0,0,7.38,7.37,7.19,7.19,0,0,0,1.93-.26l0,0,.63-.2,209.14-69,1.86-.61h0a7.82,7.82,0,0,0,1.87-12.82ZM371.72,242.8a8,8,0,1,1-1.42-6.37A8,8,0,0,1,371.72,242.8Zm-27.6,52.81a8,8,0,1,1,1.41,6.38A8,8,0,0,1,344.12,295.61Z" transform="translate(-330.63 -118.48)"/><path class="cls-1" d="M558.34,279.27a7.51,7.51,0,0,1-1.86.61Z" transform="translate(-330.63 -118.48)"/><path class="cls-1" d="M337.38,341.45a6.83,6.83,0,0,1,.39-1.92l-.28,1.38Z" transform="translate(-330.63 -118.48)"/></g></svg>